# xmcd CD database file
#
# Track frame offsets:
#	150
#	17320
#	37780
#	70203
#
# Disc length: 1738 seconds
#
# Revision: 2
# Processed by: cddbd v1.5PL3 Copyright (c) Steve Scherf et al.
# Submitted via: CDex 1.50
#
DISCID=2106c804
DTITLE=Nelly Furtado - Try
DYEAR=2004
DGENRE=Folk
TTITLE0=Try - Radio Edit
TTITLE1=I´m Like A Bird - Acoustic Live on New Ground
TTITLE2=Try - Acoustic Version
TTITLE3=Try Video
EXTD=dwd YEAR: 2004
EXTT0=
EXTT1=
EXTT2=
EXTT3=
PLAYORDER=
